<?xml version="1.0" encoding="utf-8"?>
<!-- Generator: Adobe Illustrator 15.1.0, SVG Export Plug-In . SVG Version: 6.00 Build 0)  -->
<!DOCTYPE svg PUBLIC "-//W3C//DTD SVG 1.1//EN" "http://www.w3.org/Graphics/SVG/1.1/DTD/svg11.dtd">
<svg version="1.1" id="レイヤー_1" xmlns="http://www.w3.org/2000/svg" xmlns:xlink="http://www.w3.org/1999/xlink" x="0px"
	 y="0px" width="1400px" height="156px" viewBox="0 0 1400 156" enable-background="new 0 0 1400 156" xml:space="preserve">
<g>
	<path fill="#333333" d="M0,152.092V2.65h56.373c9.92,0,17.498,0.477,22.731,1.428c7.34,1.223,13.49,3.552,18.451,6.982
		c4.96,3.433,8.953,8.241,11.978,14.425c3.022,6.185,4.536,12.98,4.536,20.387c0,12.709-4.043,23.463-12.129,32.264
		c-8.09,8.802-22.699,13.202-43.834,13.202h-38.33v60.754H0z M19.775,73.702h38.636c12.775,0,21.847-2.379,27.217-7.136
		c5.369-4.757,8.053-11.451,8.053-20.082c0-6.252-1.581-11.604-4.741-16.056c-3.16-4.45-7.324-7.391-12.487-8.817
		c-3.33-0.883-9.481-1.325-18.452-1.325H19.775V73.702z"/>
	<path fill="#333333" d="M139.859,152.092V2.65h19.776v61.367h77.677V2.65h19.775v149.441h-19.775V81.652h-77.677v70.439H139.859z"
		/>
	<path fill="#333333" d="M288.174,79.309c0-24.805,6.66-44.224,19.98-58.258C321.473,7.019,338.667,0,359.735,0
		c13.795,0,26.232,3.298,37.309,9.889c11.076,6.593,19.521,15.784,25.332,27.574c5.811,11.791,8.716,25.163,8.716,40.112
		c0,15.155-3.059,28.713-9.175,40.674c-6.116,11.961-14.781,21.016-25.993,27.166c-11.214,6.15-23.311,9.226-36.291,9.226
		c-14.067,0-26.641-3.398-37.717-10.194c-11.079-6.794-19.471-16.071-25.179-27.829C291.029,104.86,288.174,92.425,288.174,79.309z
		 M308.562,79.614c0,18.01,4.843,32.197,14.527,42.559c9.684,10.364,21.831,15.546,36.442,15.546
		c14.884,0,27.131-5.231,36.75-15.699c9.615-10.464,14.423-25.313,14.423-44.546c0-12.165-2.057-22.784-6.167-31.856
		c-4.112-9.071-10.126-16.106-18.043-21.101c-7.917-4.995-16.804-7.493-26.656-7.493c-14,0-26.046,4.81-36.137,14.425
		C313.608,41.065,308.562,57.121,308.562,79.614z"/>
	<path fill="#333333" d="M490.425,152.092V20.286h-49.237V2.65h118.451v17.636h-49.439v131.806H490.425z"/>
	<path fill="#333333" d="M570.14,79.309c0-24.805,6.658-44.224,19.979-58.258C603.438,7.019,620.632,0,641.7,0
		c13.794,0,26.23,3.298,37.309,9.889c11.076,6.593,19.522,15.784,25.331,27.574c5.813,11.791,8.717,25.163,8.717,40.112
		c0,15.155-3.059,28.713-9.176,40.674c-6.114,11.961-14.779,21.016-25.992,27.166s-23.311,9.226-36.291,9.226
		c-14.068,0-26.641-3.398-37.717-10.194c-11.078-6.794-19.47-16.071-25.179-27.829C572.994,104.86,570.14,92.425,570.14,79.309z
		 M590.526,79.614c0,18.01,4.843,32.197,14.527,42.559c9.685,10.364,21.83,15.546,36.442,15.546
		c14.883,0,27.132-5.231,36.748-15.699c9.615-10.464,14.424-25.313,14.424-44.546c0-12.165-2.057-22.784-6.166-31.856
		c-4.113-9.071-10.127-16.106-18.043-21.101c-7.918-4.995-16.804-7.493-26.658-7.493c-14,0-26.044,4.81-36.136,14.425
		C595.572,41.065,590.526,57.121,590.526,79.614z"/>
	<path fill="#333333" d="M812.43,152.092V2.65h56.066c11.416,0,20.573,1.514,27.472,4.537c6.896,3.024,12.3,7.68,16.209,13.966
		c3.907,6.286,5.861,12.861,5.861,19.724c0,6.39-1.732,12.404-5.198,18.044c-3.467,5.641-8.7,10.193-15.7,13.659
		c9.039,2.65,15.987,7.172,20.848,13.558c4.857,6.389,7.289,13.933,7.289,22.631c0,7-1.479,13.506-4.435,19.521
		c-2.957,6.016-6.612,10.652-10.958,13.915c-4.352,3.261-9.806,5.726-16.363,7.391c-6.558,1.666-14.593,2.497-24.106,2.497H812.43z
		 M832.206,65.444h32.313c8.768,0,15.053-0.576,18.859-1.733c5.027-1.493,8.818-3.975,11.366-7.439
		c2.548-3.468,3.822-7.815,3.822-13.049c0-4.961-1.188-9.328-3.567-13.099c-2.38-3.773-5.776-6.354-10.192-7.748
		c-4.419-1.393-11.997-2.09-22.733-2.09h-29.868V65.444z M832.206,134.457h37.208c6.386,0,10.872-0.237,13.455-0.715
		c4.552-0.814,8.358-2.173,11.417-4.077c3.058-1.901,5.571-4.672,7.544-8.308c1.971-3.634,2.956-7.832,2.956-12.589
		c0-5.571-1.428-10.414-4.281-14.526c-2.854-4.111-6.814-6.999-11.876-8.665c-5.063-1.664-12.354-2.497-21.865-2.497h-34.558
		V134.457z"/>
	<path fill="#333333" d="M946.479,79.309c0-24.805,6.659-44.224,19.979-58.258C979.776,7.019,996.972,0,1018.039,0
		c13.794,0,26.23,3.298,37.309,9.889c11.077,6.593,19.521,15.784,25.331,27.574c5.812,11.791,8.717,25.163,8.717,40.112
		c0,15.155-3.058,28.713-9.175,40.674s-14.781,21.016-25.994,27.166s-23.311,9.226-36.29,9.226
		c-14.068,0-26.641-3.398-37.717-10.194c-11.078-6.794-19.47-16.071-25.18-27.829C949.332,104.86,946.479,92.425,946.479,79.309z
		 M966.865,79.614c0,18.01,4.842,32.197,14.526,42.559c9.685,10.364,21.83,15.546,36.442,15.546
		c14.884,0,27.133-5.231,36.749-15.699c9.615-10.464,14.424-25.313,14.424-44.546c0-12.165-2.057-22.784-6.166-31.856
		c-4.113-9.071-10.127-16.106-18.044-21.101c-7.917-4.995-16.803-7.493-26.657-7.493c-14.001,0-26.044,4.81-36.136,14.425
		C971.91,41.065,966.865,57.121,966.865,79.614z"/>
	<path fill="#333333" d="M1108.865,79.309c0-24.805,6.66-44.224,19.979-58.258C1142.163,7.019,1159.357,0,1180.426,0
		c13.794,0,26.23,3.298,37.31,9.889c11.076,6.593,19.521,15.784,25.332,27.574c5.811,11.791,8.715,25.163,8.715,40.112
		c0,15.155-3.059,28.713-9.175,40.674c-6.115,11.961-14.779,21.016-25.993,27.166s-23.312,9.226-36.29,9.226
		c-14.068,0-26.642-3.398-37.719-10.194c-11.078-6.794-19.469-16.071-25.177-27.829
		C1111.719,104.86,1108.865,92.425,1108.865,79.309z M1129.254,79.614c0,18.01,4.842,32.197,14.525,42.559
		c9.684,10.364,21.831,15.546,36.442,15.546c14.882,0,27.131-5.231,36.749-15.699c9.615-10.464,14.424-25.313,14.424-44.546
		c0-12.165-2.057-22.784-6.167-31.856c-4.113-9.071-10.127-16.106-18.043-21.101c-7.917-4.995-16.804-7.493-26.658-7.493
		c-13.999,0-26.044,4.81-36.135,14.425C1134.298,41.065,1129.254,57.121,1129.254,79.614z"/>
	<path fill="#333333" d="M1276.45,152.092V2.65h19.776V76.76l74.211-74.109h26.81l-62.691,60.552l65.444,88.89h-26.096
		l-53.213-75.638l-24.465,23.854v51.784H1276.45z"/>
</g>
</svg>
